<svg width="20" height="20" viewBox="0 0 20 20" fill="none" xmlns="http://www.w3.org/2000/svg">
<g clip-path="url(#clip0_475_190)">
<path d="M12.5023 3.33325C12.7182 3.33325 12.989 3.38992 13.2065 3.44325C13.9648 3.62659 14.864 3.85409 15.5023 4.33325C16.0965 4.77909 16.5582 5.55659 16.9148 6.34659C17.6565 7.99242 18.1723 10.1866 18.3507 11.8549C18.4357 12.6466 18.4565 13.4433 18.304 13.9791C18.229 14.2424 18.0665 14.4408 17.9523 14.5624C17.604 14.9316 17.1557 15.2074 16.7123 15.4583L16.4923 15.5824C16.3475 15.663 16.2016 15.7419 16.0548 15.8191L15.6198 16.0441L15.0223 16.3416L14.5415 16.5783C14.3656 16.6664 14.1641 16.6894 13.9728 16.6432C13.7815 16.5971 13.6127 16.4847 13.4963 16.326C13.3799 16.1673 13.3235 15.9725 13.3369 15.7762C13.3504 15.5798 13.4329 15.3946 13.5698 15.2533L13.2082 14.5299C12.1682 14.846 11.0868 15.0044 9.99985 14.9999C8.85818 14.9999 7.76902 14.8333 6.79152 14.5299L6.43068 15.2516C6.56815 15.3927 6.65119 15.5779 6.66507 15.7744C6.67895 15.9709 6.62277 16.166 6.50651 16.325C6.39024 16.484 6.22141 16.5967 6.02995 16.643C5.8385 16.6894 5.63682 16.6665 5.46068 16.5783L5.00735 16.3533C4.50402 16.1049 4.00068 15.8566 3.51068 15.5824C2.99902 15.2966 2.45652 14.9924 2.05068 14.5616C1.88873 14.3979 1.76817 14.1979 1.69902 13.9783C1.54568 13.4433 1.56735 12.6474 1.65152 11.8549C1.82985 10.1866 2.34568 7.99242 3.08818 6.34659C3.44402 5.55659 3.90568 4.77909 4.49985 4.33325C5.13818 3.85409 6.03735 3.62659 6.79568 3.44325C7.01318 3.38992 7.28318 3.33325 7.49985 3.33325C7.6197 3.33315 7.73816 3.3589 7.84715 3.40874C7.95615 3.45859 8.05311 3.53136 8.13141 3.62209C8.20972 3.71282 8.26754 3.81937 8.30093 3.93448C8.33431 4.04958 8.34247 4.17054 8.32485 4.28909C8.8794 4.20703 9.43926 4.16609 9.99985 4.16659C10.5757 4.16659 11.1382 4.20825 11.6782 4.28992C11.6604 4.17131 11.6685 4.05026 11.7018 3.93505C11.7351 3.81984 11.7929 3.71318 11.8713 3.62236C11.9496 3.53154 12.0466 3.45869 12.1556 3.40879C12.2647 3.3589 12.3824 3.33313 12.5023 3.33325ZM13.6307 5.30242C13.5057 5.26242 13.4757 5.27992 13.4307 5.35492L13.379 5.44825C13.2443 5.67914 13.0398 5.86131 12.795 5.96854C12.5501 6.07577 12.2775 6.10251 12.0165 6.04492C11.3538 5.90265 10.6777 5.83169 9.99985 5.83325C9.28985 5.83325 8.61068 5.90825 7.98318 6.04492C7.72216 6.10251 7.44959 6.07577 7.20473 5.96854C6.95988 5.86131 6.75538 5.67914 6.62068 5.44825L6.56902 5.35575C6.52485 5.28075 6.49485 5.26325 6.37068 5.30242C6.07402 5.39659 5.75568 5.49742 5.49985 5.66659C5.26068 5.84575 4.94152 6.29159 4.60735 7.03242C3.96902 8.44659 3.46902 10.5358 3.30902 12.0324C3.27568 12.3483 3.25818 12.6191 3.25402 12.8424V13.0874C3.25735 13.2358 3.26818 13.3533 3.28318 13.4391C3.49485 13.6458 3.75652 13.8083 4.01902 13.9574L4.58735 14.2716L4.95902 14.4674L5.26235 13.8608C5.11549 13.7239 5.02296 13.5387 5.00176 13.339C4.98057 13.1394 5.03214 12.9389 5.147 12.7743C5.26185 12.6096 5.43227 12.492 5.62692 12.443C5.82158 12.3939 6.02739 12.4168 6.20652 12.5074C7.21985 13.0166 8.53818 13.3333 9.99985 13.3333C11.4607 13.3333 12.7798 13.0149 13.7932 12.5083C13.9647 12.4223 14.1605 12.3982 14.3477 12.4399C14.5349 12.4817 14.702 12.5867 14.8208 12.7373C14.9395 12.8879 15.0027 13.0748 14.9997 13.2666C14.9966 13.4583 14.9275 13.6432 14.804 13.7899L14.7373 13.8608L15.0407 14.4691C15.289 14.3408 15.5382 14.2049 15.7882 14.0666C16.1132 13.8866 16.4548 13.6974 16.719 13.4391C16.734 13.3533 16.744 13.2358 16.7482 13.0874V12.8424C16.7414 12.5715 16.7231 12.301 16.6932 12.0316C16.5332 10.5358 16.0332 8.44659 15.3948 7.03159C15.0615 6.29159 14.7415 5.84575 14.5032 5.66659C14.2465 5.49742 13.9282 5.39659 13.6307 5.30242ZM7.29152 8.74992C7.67829 8.74992 8.04922 8.90356 8.32271 9.17705C8.5962 9.45054 8.74985 9.82148 8.74985 10.2083C8.74985 10.595 8.5962 10.966 8.32271 11.2395C8.04922 11.5129 7.67829 11.6666 7.29152 11.6666C6.90474 11.6666 6.53381 11.5129 6.26032 11.2395C5.98683 10.966 5.83318 10.595 5.83318 10.2083C5.83318 9.82148 5.98683 9.45054 6.26032 9.17705C6.53381 8.90356 6.90474 8.74992 7.29152 8.74992ZM12.7082 8.74992C13.095 8.74992 13.4659 8.90356 13.7394 9.17705C14.0129 9.45054 14.1665 9.82148 14.1665 10.2083C14.1665 10.595 14.0129 10.966 13.7394 11.2395C13.4659 11.5129 13.095 11.6666 12.7082 11.6666C12.3214 11.6666 11.9505 11.5129 11.677 11.2395C11.4035 10.966 11.2498 10.595 11.2498 10.2083C11.2498 9.82148 11.4035 9.45054 11.677 9.17705C11.9505 8.90356 12.3214 8.74992 12.7082 8.74992Z" fill="#F8F8F8"/>
</g>
<defs>
<clipPath id="clip0_475_190">
<rect width="20" height="20" fill="white"/>
</clipPath>
</defs>
</svg>
