<svg width="20" height="20" viewBox="0 0 20 20" fill="none" xmlns="http://www.w3.org/2000/svg">
<path d="M2.5 9.16667C2.5 6.02417 2.5 4.4525 3.47667 3.47667C4.4525 2.5 6.02417 2.5 9.16667 2.5H10.8333C13.9758 2.5 15.5475 2.5 16.5233 3.47667C17.5 4.4525 17.5 6.02417 17.5 9.16667V10.8333C17.5 13.9758 17.5 15.5475 16.5233 16.5233C15.5475 17.5 13.9758 17.5 10.8333 17.5H9.16667C6.02417 17.5 4.4525 17.5 3.47667 16.5233C2.5 15.5475 2.5 13.9758 2.5 10.8333V9.16667Z" stroke="#F8F8F8" stroke-width="1.66667"/>
<path d="M13.75 7.5C14.4404 7.5 15 6.94036 15 6.25C15 5.55964 14.4404 5 13.75 5C13.0596 5 12.5 5.55964 12.5 6.25C12.5 6.94036 13.0596 7.5 13.75 7.5Z" fill="#F8F8F8"/>
<path d="M10 12.5C11.3807 12.5 12.5 11.3807 12.5 10C12.5 8.61929 11.3807 7.5 10 7.5C8.61929 7.5 7.5 8.61929 7.5 10C7.5 11.3807 8.61929 12.5 10 12.5Z" stroke="#F8F8F8" stroke-width="1.66667"/>
</svg>
