<svg width="26" height="25" viewBox="0 0 26 25" fill="none" xmlns="http://www.w3.org/2000/svg">
<path d="M12.9998 0.639893C6.2847 0.639893 0.839844 6.08475 0.839844 12.7999C0.839844 19.515 6.2847 24.9599 12.9998 24.9599C19.715 24.9599 25.1598 19.515 25.1598 12.7999C25.1598 6.08475 19.715 0.639893 12.9998 0.639893ZM10.8284 16.9256C10.8284 17.045 10.7307 17.1427 10.6113 17.1427H9.30841C9.18899 17.1427 9.09127 17.045 9.09127 16.9256V8.67418C9.09127 8.55475 9.18899 8.45704 9.30841 8.45704H10.6113C10.7307 8.45704 10.8284 8.55475 10.8284 8.67418V16.9256ZM16.9084 16.9256C16.9084 17.045 16.8107 17.1427 16.6913 17.1427H15.3884C15.269 17.1427 15.1713 17.045 15.1713 16.9256V8.67418C15.1713 8.55475 15.269 8.45704 15.3884 8.45704H16.6913C16.8107 8.45704 16.9084 8.55475 16.9084 8.67418V16.9256Z" fill="#A5D9D0"/>
</svg>
