<svg width="25" height="25" viewBox="0 0 25 25" fill="none" xmlns="http://www.w3.org/2000/svg">
<path d="M12.8265 0.666626C10.4215 0.666626 8.07048 1.3798 6.07077 2.71595C4.07107 4.05211 2.5125 5.95124 1.59213 8.17319C0.671773 10.3951 0.430964 12.8401 0.90016 15.1989C1.36936 17.5577 2.52748 19.7244 4.22809 21.425C5.9287 23.1256 8.0954 24.2838 10.4542 24.753C12.813 25.2222 15.258 24.9814 17.4799 24.061C19.7019 23.1406 21.601 21.5821 22.9372 19.5824C24.2733 17.5827 24.9865 15.2316 24.9865 12.8266C24.9865 11.2297 24.672 9.64851 24.0609 8.17319C23.4498 6.69787 22.5541 5.35737 21.4249 4.22821C20.2958 3.09905 18.9553 2.20335 17.4799 1.59225C16.0046 0.981154 14.4234 0.666626 12.8265 0.666626ZM10.3945 18.2986V7.35462L17.6905 12.8266L10.3945 18.2986Z" fill="#A5D9D0"/>
</svg>
