<svg width="25" height="20" viewBox="0 0 25 20" fill="none" xmlns="http://www.w3.org/2000/svg">
<g clip-path="url(#clip0_474_96)" filter="url(#filter0_d_474_96)">
<path d="M10.5316 11.2024C10.9315 11.2024 11.2163 10.9176 11.2163 10.5238V1.2293C11.2163 0.835463 10.9315 0.514334 10.5195 0.514334C10.2347 0.514334 10.0408 0.635516 9.73788 0.932407L7.15067 3.356C7.11434 3.39236 7.0598 3.41054 6.99921 3.41054H5.26633C4.44231 3.41054 4 3.86495 4 4.73745V6.99142C4 7.86997 4.44231 8.31833 5.26633 8.31833H6.99921C7.0598 8.31833 7.11434 8.33651 7.15067 8.37287L9.73788 10.8207C10.0105 11.0873 10.2468 11.2024 10.5316 11.2024ZM13.3793 8.43345C13.5793 8.57281 13.8641 8.5304 14.0276 8.2941C14.4942 7.68213 14.7729 6.77936 14.7729 5.85232C14.7729 4.92529 14.4942 4.02856 14.0276 3.41054C13.8641 3.17424 13.5793 3.12576 13.3793 3.27119C13.1309 3.44085 13.0946 3.74378 13.2824 3.9922C13.6338 4.47692 13.8338 5.14948 13.8338 5.85232C13.8338 6.55516 13.6278 7.22167 13.2824 7.71244C13.1006 7.96691 13.1309 8.25774 13.3793 8.43345ZM15.6272 10.0149C15.8514 10.1663 16.1301 10.1118 16.2937 9.88157C17.0693 8.81518 17.5237 7.34889 17.5237 5.85232C17.5237 4.35575 17.0753 2.87735 16.2937 1.82308C16.1301 1.59284 15.8514 1.53831 15.6272 1.68978C15.403 1.84126 15.3667 2.12603 15.5424 2.37445C16.2028 3.30755 16.5846 4.56174 16.5846 5.85232C16.5846 7.1429 16.1907 8.385 15.5424 9.33018C15.3728 9.5786 15.403 9.86339 15.6272 10.0149ZM17.8994 11.6205C18.1054 11.772 18.4023 11.7114 18.5658 11.469C19.6262 9.9361 20.2624 7.99114 20.2624 5.85232C20.2624 3.70742 19.608 1.77461 18.5658 0.235621C18.4023 -0.0127978 18.1054 -0.0673289 17.8994 0.0841462C17.6691 0.241681 17.6388 0.526455 17.8024 0.774873C18.7416 2.16238 19.3353 3.90739 19.3353 5.85232C19.3353 7.7912 18.7416 9.54833 17.8024 10.9298C17.6388 11.1782 17.6691 11.4629 17.8994 11.6205Z" fill="white" fill-opacity="0.85"/>
</g>
<defs>
<filter id="filter0_d_474_96" x="0" y="0" width="24.2622" height="19.7107" filterUnits="userSpaceOnUse" color-interpolation-filters="sRGB">
<feFlood flood-opacity="0" result="BackgroundImageFix"/>
<feColorMatrix in="SourceAlpha" type="matrix" values="0 0 0 0 0 0 0 0 0 0 0 0 0 0 0 0 0 0 127 0" result="hardAlpha"/>
<feOffset dy="4"/>
<feGaussianBlur stdDeviation="2"/>
<feComposite in2="hardAlpha" operator="out"/>
<feColorMatrix type="matrix" values="0 0 0 0 0 0 0 0 0 0 0 0 0 0 0 0 0 0 0.25 0"/>
<feBlend mode="normal" in2="BackgroundImageFix" result="effect1_dropShadow_474_96"/>
<feBlend mode="normal" in="SourceGraphic" in2="effect1_dropShadow_474_96" result="shape"/>
</filter>
<clipPath id="clip0_474_96">
<rect width="16.2624" height="11.7107" fill="white" transform="translate(4)"/>
</clipPath>
</defs>
</svg>
