<svg width="20" height="20" viewBox="0 0 20 20" fill="none" xmlns="http://www.w3.org/2000/svg">
<path d="M13.7498 10.0001C13.7498 9.43341 13.6998 8.88341 13.6332 8.33341H16.4498C16.5832 8.86675 16.6665 9.42508 16.6665 10.0001C16.6665 10.3084 16.6415 10.6084 16.5998 10.9001C17.1748 10.9834 17.7082 11.1667 18.1998 11.4334C18.2832 10.9667 18.3332 10.4917 18.3332 10.0001C18.3332 5.41675 14.5832 1.66675 9.99984 1.66675C5.3915 1.66675 1.6665 5.41675 1.6665 10.0001C1.6665 14.5834 5.4165 18.3334 9.99984 18.3334C10.4915 18.3334 10.9665 18.2834 11.4332 18.2001C11.0374 17.4742 10.831 16.6602 10.8332 15.8334C10.8332 15.5917 10.8582 15.3584 10.8915 15.1251C10.6248 15.6501 10.3332 16.1584 9.99984 16.6334C9.30817 15.6334 8.74984 14.5251 8.40817 13.3334H11.5082C12.0087 12.4637 12.7613 11.7663 13.6665 11.3334C13.7165 10.8917 13.7498 10.4501 13.7498 10.0001ZM9.99984 3.35841C10.6915 4.35841 11.2498 5.47508 11.5915 6.66675H8.40817C8.74984 5.47508 9.30817 4.35841 9.99984 3.35841ZM3.54984 11.6667C3.4165 11.1334 3.33317 10.5751 3.33317 10.0001C3.33317 9.42508 3.4165 8.86675 3.54984 8.33341H6.3665C6.29984 8.88341 6.24984 9.43341 6.24984 10.0001C6.24984 10.5667 6.29984 11.1167 6.3665 11.6667H3.54984ZM4.23317 13.3334H6.6665C6.95817 14.3751 7.33317 15.3751 7.83317 16.3001C6.31506 15.777 5.03674 14.7236 4.23317 13.3334ZM6.6665 6.66675H4.23317C5.03204 5.27261 6.31205 4.21778 7.83317 3.70008C7.33317 4.62508 6.95817 5.62508 6.6665 6.66675ZM11.9498 11.6667H8.04984C7.9665 11.1167 7.9165 10.5667 7.9165 10.0001C7.9165 9.43341 7.9665 8.87508 8.04984 8.33341H11.9498C12.0248 8.87508 12.0832 9.43341 12.0832 10.0001C12.0832 10.5667 12.0248 11.1167 11.9498 11.6667ZM12.1582 3.70008C13.6915 4.22508 14.9665 5.28341 15.7665 6.66675H13.3082C13.047 5.63476 12.6608 4.6385 12.1582 3.70008ZM18.7498 14.3751L14.7915 18.3334L12.4998 15.8334L13.4665 14.8667L14.7915 16.1917L17.7832 13.2001L18.7498 14.3751Z" fill="#F8F8F8"/>
</svg>
