<svg width="18" height="12" viewBox="0 0 18 12" fill="none" xmlns="http://www.w3.org/2000/svg">
<path d="M7.33317 8.50008L11.6582 6.00008L7.33317 3.50008V8.50008ZM16.9665 1.97508C17.0748 2.36675 17.1498 2.89175 17.1998 3.55841C17.2582 4.22508 17.2832 4.80008 17.2832 5.30008L17.3332 6.00008C17.3332 7.82508 17.1998 9.16675 16.9665 10.0251C16.7582 10.7751 16.2748 11.2584 15.5248 11.4667C15.1332 11.5751 14.4165 11.6501 13.3165 11.7001C12.2332 11.7584 11.2415 11.7834 10.3248 11.7834L8.99984 11.8334C5.50817 11.8334 3.33317 11.7001 2.47484 11.4667C1.72484 11.2584 1.2415 10.7751 1.03317 10.0251C0.924837 9.63341 0.849837 9.10841 0.799837 8.44175C0.741504 7.77508 0.716504 7.20008 0.716504 6.70008L0.666504 6.00008C0.666504 4.17508 0.799837 2.83341 1.03317 1.97508C1.2415 1.22508 1.72484 0.741748 2.47484 0.533415C2.8665 0.425081 3.58317 0.350081 4.68317 0.300081C5.7665 0.241748 6.75817 0.216748 7.67484 0.216748L8.99984 0.166748C12.4915 0.166748 14.6665 0.300081 15.5248 0.533415C16.2748 0.741748 16.7582 1.22508 16.9665 1.97508Z" fill="#F8F8F8"/>
</svg>
